<svg xmlns="http://www.w3.org/2000/svg" xmlns:xlink="http://www.w3.org/1999/xlink" width="500" zoomAndPan="magnify" viewBox="0 0 375 374.999991" height="500" preserveAspectRatio="xMidYMid meet" version="1.0"><defs><g/><clipPath id="7f7691d695"><path d="M 183.035156 142.089844 L 285.785156 142.089844 L 285.785156 244.839844 L 183.035156 244.839844 Z M 183.035156 142.089844 " clip-rule="nonzero"/></clipPath></defs><g clip-path="url(#7f7691d695)"><path fill="#ffffff" d="M 258.847656 192.605469 C 258.847656 206.4375 249.257812 217.433594 235.425781 217.433594 C 221.589844 217.433594 209.96875 207.296875 209.96875 193.464844 C 209.96875 179.628906 220.464844 169.492188 234.300781 169.492188 C 249.242188 169.492188 258.847656 178.769531 258.847656 192.605469 Z M 236.480469 143.375 C 235.722656 142.203125 232.558594 142.085938 231.699219 143.414062 C 230.816406 144.777344 231.613281 163.597656 234.089844 163.597656 C 236.796875 163.597656 237.132812 144.382812 236.480469 143.375 Z M 211.15625 149.050781 C 209.914062 148.414062 207.117188 149.894531 207.039062 151.472656 C 206.957031 153.097656 217.054688 168.996094 219.199219 167.757812 C 221.542969 166.40625 212.226562 149.597656 211.15625 149.050781 Z M 192.066406 166.625 C 190.671875 166.695312 188.988281 169.378906 189.710938 170.785156 C 190.449219 172.234375 207.148438 180.953125 208.386719 178.808594 C 209.738281 176.460938 193.265625 166.566406 192.066406 166.625 Z M 184.320312 191.394531 C 183.148438 192.152344 183.03125 195.3125 184.359375 196.171875 C 185.726562 197.058594 204.542969 196.257812 204.542969 193.78125 C 204.542969 191.078125 185.328125 190.742188 184.320312 191.394531 Z M 189.996094 216.714844 C 189.359375 217.957031 190.839844 220.753906 192.417969 220.835938 C 194.042969 220.917969 209.941406 210.816406 208.703125 208.671875 C 207.351562 206.328125 190.542969 215.644531 189.996094 216.714844 Z M 207.574219 235.808594 C 207.644531 237.199219 210.324219 238.882812 211.730469 238.164062 C 213.179688 237.421875 221.898438 220.726562 219.753906 219.488281 C 217.410156 218.136719 207.511719 234.605469 207.574219 235.808594 Z M 232.339844 243.554688 C 233.097656 244.726562 236.261719 244.84375 237.117188 243.515625 C 238.003906 242.148438 237.203125 223.328125 234.730469 223.328125 C 232.023438 223.332031 231.6875 242.542969 232.339844 243.554688 Z M 257.664062 237.878906 C 258.902344 238.511719 261.699219 237.035156 261.78125 235.453125 C 261.863281 233.828125 251.761719 217.929688 249.617188 219.167969 C 247.273438 220.523438 256.59375 237.328125 257.664062 237.878906 Z M 276.753906 220.300781 C 278.148438 220.230469 279.828125 217.550781 279.109375 216.144531 C 278.367188 214.695312 261.671875 205.976562 260.433594 208.121094 C 259.082031 210.464844 275.554688 220.359375 276.753906 220.300781 Z M 284.5 195.53125 C 285.671875 194.777344 285.789062 191.613281 284.460938 190.753906 C 283.09375 189.871094 264.273438 190.667969 264.277344 193.144531 C 264.277344 195.851562 283.488281 196.1875 284.5 195.53125 Z M 278.824219 170.210938 C 279.460938 168.96875 277.980469 166.171875 276.398438 166.09375 C 274.773438 166.007812 258.875 176.109375 260.113281 178.253906 C 261.46875 180.597656 278.273438 171.28125 278.824219 170.210938 Z M 261.246094 151.117188 C 261.175781 149.726562 258.496094 148.042969 257.089844 148.765625 C 255.640625 149.503906 246.921875 166.203125 249.066406 167.4375 C 251.410156 168.792969 261.308594 152.320312 261.246094 151.117188 Z M 261.246094 151.117188 " fill-opacity="1" fill-rule="nonzero"/></g><g fill="#ffffff" fill-opacity="1"><g transform="translate(72.778399, 202.586907)"><g><path d="M 29.34375 0 L 29.34375 0.875 C 29.34375 1.957031 28.929688 2.921875 28.109375 3.765625 C 27.285156 4.617188 26.21875 5.34375 24.90625 5.9375 C 23.601562 6.53125 22.128906 6.984375 20.484375 7.296875 C 18.847656 7.617188 17.207031 7.78125 15.5625 7.78125 C 13.976562 7.78125 12.367188 7.628906 10.734375 7.328125 C 9.109375 7.023438 7.625 6.582031 6.28125 6 C 4.945312 5.414062 3.863281 4.691406 3.03125 3.828125 C 2.195312 2.972656 1.78125 2 1.78125 0.90625 L 1.78125 -6.796875 C 1.78125 -7.585938 1.984375 -8.359375 2.390625 -9.109375 C 2.804688 -9.867188 3.40625 -10.546875 4.1875 -11.140625 C 4.96875 -11.734375 5.898438 -12.207031 6.984375 -12.5625 C 8.066406 -12.925781 9.285156 -13.109375 10.640625 -13.109375 C 11.304688 -13.109375 11.988281 -13.070312 12.6875 -13 C 13.382812 -12.9375 14.054688 -12.820312 14.703125 -12.65625 C 15.359375 -12.5 15.972656 -12.289062 16.546875 -12.03125 C 17.128906 -11.769531 17.648438 -11.425781 18.109375 -11 L 18.109375 -8.890625 C 17.710938 -9.367188 17.300781 -9.742188 16.875 -10.015625 C 16.445312 -10.296875 16.023438 -10.503906 15.609375 -10.640625 C 15.203125 -10.773438 14.832031 -10.851562 14.5 -10.875 C 14.175781 -10.90625 13.921875 -10.921875 13.734375 -10.921875 C 12.960938 -10.921875 12.285156 -10.785156 11.703125 -10.515625 C 11.128906 -10.253906 10.640625 -9.90625 10.234375 -9.46875 C 9.835938 -9.03125 9.535156 -8.53125 9.328125 -7.96875 C 9.117188 -7.414062 9.015625 -6.847656 9.015625 -6.265625 L 9.015625 -0.15625 C 9.015625 0.632812 9.203125 1.375 9.578125 2.0625 C 9.960938 2.75 10.457031 3.347656 11.0625 3.859375 C 11.675781 4.378906 12.378906 4.785156 13.171875 5.078125 C 13.972656 5.367188 14.785156 5.515625 15.609375 5.515625 C 16.242188 5.515625 16.941406 5.394531 17.703125 5.15625 C 18.472656 4.914062 19.179688 4.550781 19.828125 4.0625 C 20.472656 3.570312 21.015625 2.957031 21.453125 2.21875 C 21.890625 1.476562 22.109375 0.609375 22.109375 -0.390625 L 22.109375 -13.296875 C 22.109375 -14.429688 21.6875 -15.160156 20.84375 -15.484375 L 20.84375 -16.28125 L 25.765625 -16.28125 C 28.148438 -16.28125 29.34375 -15.085938 29.34375 -12.703125 L 29.34375 -2.265625 L 32.390625 -2.265625 L 32.390625 -13.296875 C 32.390625 -14.429688 31.96875 -15.160156 31.125 -15.484375 L 31.125 -16.28125 L 36.046875 -16.28125 C 38.429688 -16.28125 39.625 -15.085938 39.625 -12.703125 L 39.625 -2.265625 L 42.6875 -2.265625 L 42.6875 -13.296875 C 42.6875 -14.429688 42.257812 -15.160156 41.40625 -15.484375 L 41.40625 -16.28125 L 46.328125 -16.28125 C 48.710938 -16.28125 49.90625 -15.085938 49.90625 -12.703125 L 49.90625 -2.265625 L 51.6875 -2.265625 L 51.6875 0 Z M 29.34375 0 "/></g></g></g><g fill="#ffffff" fill-opacity="1"><g transform="translate(124.466475, 202.586907)"><g><path d="M -1.234375 -1.078125 C -1.234375 -1.390625 -1.113281 -1.664062 -0.875 -1.90625 C -0.632812 -2.144531 -0.34375 -2.265625 0 -2.265625 L 7.21875 -2.265625 L 7.21875 0 L 0 0 C -0.34375 0 -0.632812 -0.0976562 -0.875 -0.296875 C -1.113281 -0.492188 -1.234375 -0.753906 -1.234375 -1.078125 Z M -1.234375 -1.078125 "/></g></g></g><g fill="#ffffff" fill-opacity="1"><g transform="translate(131.691692, 202.586907)"><g><path d="M -1.234375 -1.078125 C -1.234375 -1.390625 -1.113281 -1.664062 -0.875 -1.90625 C -0.632812 -2.144531 -0.34375 -2.265625 0 -2.265625 L 7.21875 -2.265625 L 7.21875 0 L 0 0 C -0.34375 0 -0.632812 -0.0976562 -0.875 -0.296875 C -1.113281 -0.492188 -1.234375 -0.753906 -1.234375 -1.078125 Z M -1.234375 -1.078125 "/></g></g></g><g fill="#ffffff" fill-opacity="1"><g transform="translate(146.857246, 182.736066)"><g><path d="M -4.796875 -6.125 L -4.796875 -8.734375 L 4.796875 -11.796875 L 4.796875 -9.015625 Z M -2.34375 -2.5 L -1.109375 -2.5 L -1.109375 -5.5625 L 1.234375 -6.234375 L 1.234375 -3.96875 L 2.46875 -3.96875 L 2.46875 -6.75 L 4.890625 -7.46875 L 4.890625 -3.453125 C 4.890625 -2.921875 4.757812 -2.457031 4.5 -2.0625 C 4.25 -1.664062 3.632812 -1.46875 2.65625 -1.46875 L 1.234375 -1.46875 C 1.234375 -1.019531 1.097656 -0.660156 0.828125 -0.390625 C 0.566406 -0.128906 0 0 -0.875 0 L -2.53125 0 C -3.457031 0 -4.0625 -0.195312 -4.34375 -0.59375 C -4.625 -0.988281 -4.765625 -1.453125 -4.765625 -1.984375 L -4.765625 -4.28125 L -2.34375 -5.046875 Z M -2.34375 -2.5 "/></g></g></g><g fill="#ffffff" fill-opacity="1"><g transform="translate(138.91691, 202.586907)"><g><path d="M 19.296875 0 C 19.296875 1.007812 19.082031 1.722656 18.65625 2.140625 C 18.238281 2.566406 17.523438 2.78125 16.515625 2.78125 L 4.5625 2.78125 C 3.5625 2.78125 2.847656 2.566406 2.421875 2.140625 C 1.992188 1.722656 1.78125 1.007812 1.78125 0 L 0 0 C -0.34375 0 -0.632812 -0.0976562 -0.875 -0.296875 C -1.113281 -0.492188 -1.234375 -0.753906 -1.234375 -1.078125 C -1.234375 -1.390625 -1.113281 -1.664062 -0.875 -1.90625 C -0.632812 -2.144531 -0.34375 -2.265625 0 -2.265625 L 1.78125 -2.265625 L 1.78125 -13.5 C 1.78125 -14.5 1.992188 -15.210938 2.421875 -15.640625 C 2.847656 -16.066406 3.5625 -16.28125 4.5625 -16.28125 L 16.515625 -16.28125 C 17.523438 -16.28125 18.238281 -16.066406 18.65625 -15.640625 C 19.082031 -15.210938 19.296875 -14.5 19.296875 -13.5 L 19.296875 -2.265625 L 21.078125 -2.265625 L 21.078125 0 Z M 11.03125 0.515625 C 11.71875 0.484375 12.0625 0.046875 12.0625 -0.796875 L 12.0625 -14.015625 L 9.015625 -14.015625 L 9.015625 -0.796875 C 9.015625 -0.347656 9.085938 -0.0234375 9.234375 0.171875 C 9.378906 0.367188 9.648438 0.484375 10.046875 0.515625 Z M 11.03125 0.515625 "/></g></g></g><g fill="#ffffff" fill-opacity="1"><g transform="translate(159.997072, 202.586907)"><g><path d="M -1.234375 -1.078125 C -1.234375 -1.390625 -1.113281 -1.664062 -0.875 -1.90625 C -0.632812 -2.144531 -0.34375 -2.265625 0 -2.265625 L 7.21875 -2.265625 L 7.21875 0 L 0 0 C -0.34375 0 -0.632812 -0.0976562 -0.875 -0.296875 C -1.113281 -0.492188 -1.234375 -0.753906 -1.234375 -1.078125 Z M -1.234375 -1.078125 "/></g></g></g><g fill="#ffffff" fill-opacity="1"><g transform="translate(167.22229, 202.586907)"><g><path d="M -1.234375 -1.078125 C -1.234375 -1.390625 -1.113281 -1.664062 -0.875 -1.90625 C -0.632812 -2.144531 -0.34375 -2.265625 0 -2.265625 L 7.21875 -2.265625 L 7.21875 0 L 0 0 C -0.34375 0 -0.632812 -0.0976562 -0.875 -0.296875 C -1.113281 -0.492188 -1.234375 -0.753906 -1.234375 -1.078125 Z M -1.234375 -1.078125 "/></g></g></g><g fill="#ffffff" fill-opacity="1"><g transform="translate(174.447507, 202.586907)"><g><path d="M -1.234375 -1.078125 C -1.234375 -1.390625 -1.113281 -1.664062 -0.875 -1.90625 C -0.632812 -2.144531 -0.34375 -2.265625 0 -2.265625 L 7.21875 -2.265625 L 7.21875 0 L 0 0 C -0.34375 0 -0.632812 -0.0976562 -0.875 -0.296875 C -1.113281 -0.492188 -1.234375 -0.753906 -1.234375 -1.078125 Z M -1.234375 -1.078125 "/></g></g></g><g fill="#ffffff" fill-opacity="1"><g transform="translate(181.672725, 202.586907)"><g><path d="M -1.234375 -1.078125 C -1.234375 -1.390625 -1.113281 -1.664062 -0.875 -1.90625 C -0.632812 -2.144531 -0.34375 -2.265625 0 -2.265625 L 7.21875 -2.265625 L 7.21875 0 L 0 0 C -0.34375 0 -0.632812 -0.0976562 -0.875 -0.296875 C -1.113281 -0.492188 -1.234375 -0.753906 -1.234375 -1.078125 Z M -1.234375 -1.078125 "/></g></g></g><g fill="#ffffff" fill-opacity="1"><g transform="translate(188.897942, 202.586907)"><g><path d="M -1.234375 -1.078125 C -1.234375 -1.390625 -1.113281 -1.664062 -0.875 -1.90625 C -0.632812 -2.144531 -0.34375 -2.265625 0 -2.265625 L 7.21875 -2.265625 L 7.21875 0 L 0 0 C -0.34375 0 -0.632812 -0.0976562 -0.875 -0.296875 C -1.113281 -0.492188 -1.234375 -0.753906 -1.234375 -1.078125 Z M -1.234375 -1.078125 "/></g></g></g><g fill="#ffffff" fill-opacity="1"><g transform="translate(196.12316, 202.586907)"><g><path d="M -1.234375 -1.078125 C -1.234375 -1.390625 -1.113281 -1.664062 -0.875 -1.90625 C -0.632812 -2.144531 -0.34375 -2.265625 0 -2.265625 L 7.21875 -2.265625 L 7.21875 0 L 0 0 C -0.34375 0 -0.632812 -0.0976562 -0.875 -0.296875 C -1.113281 -0.492188 -1.234375 -0.753906 -1.234375 -1.078125 Z M -1.234375 -1.078125 "/></g></g></g><g fill="#ffffff" fill-opacity="1"><g transform="translate(203.348377, 202.586907)"><g><path d="M -1.234375 -1.078125 C -1.234375 -1.390625 -1.113281 -1.664062 -0.875 -1.90625 C -0.632812 -2.144531 -0.34375 -2.265625 0 -2.265625 L 7.21875 -2.265625 L 7.21875 0 L 0 0 C -0.34375 0 -0.632812 -0.0976562 -0.875 -0.296875 C -1.113281 -0.492188 -1.234375 -0.753906 -1.234375 -1.078125 Z M -1.234375 -1.078125 "/></g></g></g><g fill="#ffffff" fill-opacity="1"><g transform="translate(210.573595, 202.586907)"><g><path d="M -1.234375 -1.078125 C -1.234375 -1.390625 -1.113281 -1.664062 -0.875 -1.90625 C -0.632812 -2.144531 -0.34375 -2.265625 0 -2.265625 L 7.21875 -2.265625 L 7.21875 0 L 0 0 C -0.34375 0 -0.632812 -0.0976562 -0.875 -0.296875 C -1.113281 -0.492188 -1.234375 -0.753906 -1.234375 -1.078125 Z M -1.234375 -1.078125 "/></g></g></g><g fill="#ffffff" fill-opacity="1"><g transform="translate(217.798812, 202.586907)"><g><path d="M -1.234375 -1.078125 C -1.234375 -1.390625 -1.113281 -1.664062 -0.875 -1.90625 C -0.632812 -2.144531 -0.34375 -2.265625 0 -2.265625 L 7.21875 -2.265625 L 7.21875 0 L 0 0 C -0.34375 0 -0.632812 -0.0976562 -0.875 -0.296875 C -1.113281 -0.492188 -1.234375 -0.753906 -1.234375 -1.078125 Z M -1.234375 -1.078125 "/></g></g></g><g fill="#ffffff" fill-opacity="1"><g transform="translate(225.02403, 202.586907)"><g><path d="M -1.234375 -1.078125 C -1.234375 -1.390625 -1.113281 -1.664062 -0.875 -1.90625 C -0.632812 -2.144531 -0.34375 -2.265625 0 -2.265625 L 7.21875 -2.265625 L 7.21875 0 L 0 0 C -0.34375 0 -0.632812 -0.0976562 -0.875 -0.296875 C -1.113281 -0.492188 -1.234375 -0.753906 -1.234375 -1.078125 Z M -1.234375 -1.078125 "/></g></g></g><g fill="#ffffff" fill-opacity="1"><g transform="translate(232.249247, 202.586907)"><g><path d="M -1.234375 -1.078125 C -1.234375 -1.390625 -1.113281 -1.664062 -0.875 -1.90625 C -0.632812 -2.144531 -0.34375 -2.265625 0 -2.265625 L 7.21875 -2.265625 L 7.21875 0 L 0 0 C -0.34375 0 -0.632812 -0.0976562 -0.875 -0.296875 C -1.113281 -0.492188 -1.234375 -0.753906 -1.234375 -1.078125 Z M -1.234375 -1.078125 "/></g></g></g><g fill="#ffffff" fill-opacity="1"><g transform="translate(239.474474, 202.586907)"><g><path d="M -1.234375 -1.078125 C -1.234375 -1.390625 -1.113281 -1.664062 -0.875 -1.90625 C -0.632812 -2.144531 -0.34375 -2.265625 0 -2.265625 L 7.21875 -2.265625 L 7.21875 0 L 0 0 C -0.34375 0 -0.632812 -0.0976562 -0.875 -0.296875 C -1.113281 -0.492188 -1.234375 -0.753906 -1.234375 -1.078125 Z M -1.234375 -1.078125 "/></g></g></g><g fill="#ffffff" fill-opacity="1"><g transform="translate(246.699692, 202.586907)"><g><path d="M -1.234375 -1.078125 C -1.234375 -1.390625 -1.113281 -1.664062 -0.875 -1.90625 C -0.632812 -2.144531 -0.34375 -2.265625 0 -2.265625 L 7.21875 -2.265625 L 7.21875 0 L 0 0 C -0.34375 0 -0.632812 -0.0976562 -0.875 -0.296875 C -1.113281 -0.492188 -1.234375 -0.753906 -1.234375 -1.078125 Z M -1.234375 -1.078125 "/></g></g></g><g fill="#ffffff" fill-opacity="1"><g transform="translate(253.924909, 202.586907)"><g><path d="M -1.234375 -1.078125 C -1.234375 -1.390625 -1.113281 -1.664062 -0.875 -1.90625 C -0.632812 -2.144531 -0.34375 -2.265625 0 -2.265625 L 7.21875 -2.265625 L 7.21875 0 L 0 0 C -0.34375 0 -0.632812 -0.0976562 -0.875 -0.296875 C -1.113281 -0.492188 -1.234375 -0.753906 -1.234375 -1.078125 Z M -1.234375 -1.078125 "/></g></g></g><g fill="#ffffff" fill-opacity="1"><g transform="translate(261.150127, 202.586907)"><g><path d="M -1.234375 -1.078125 C -1.234375 -1.390625 -1.113281 -1.664062 -0.875 -1.90625 C -0.632812 -2.144531 -0.34375 -2.265625 0 -2.265625 L 7.21875 -2.265625 L 7.21875 0 L 0 0 C -0.34375 0 -0.632812 -0.0976562 -0.875 -0.296875 C -1.113281 -0.492188 -1.234375 -0.753906 -1.234375 -1.078125 Z M -1.234375 -1.078125 "/></g></g></g><g fill="#ffffff" fill-opacity="1"><g transform="translate(268.375344, 202.586907)"><g><path d="M -1.234375 -1.078125 C -1.234375 -1.390625 -1.113281 -1.664062 -0.875 -1.90625 C -0.632812 -2.144531 -0.34375 -2.265625 0 -2.265625 L 7.21875 -2.265625 L 7.21875 0 L 0 0 C -0.34375 0 -0.632812 -0.0976562 -0.875 -0.296875 C -1.113281 -0.492188 -1.234375 -0.753906 -1.234375 -1.078125 Z M -1.234375 -1.078125 "/></g></g></g><g fill="#ffffff" fill-opacity="1"><g transform="translate(275.600562, 202.586907)"><g><path d="M -1.234375 -1.078125 C -1.234375 -1.390625 -1.113281 -1.664062 -0.875 -1.90625 C -0.632812 -2.144531 -0.34375 -2.265625 0 -2.265625 L 7.21875 -2.265625 L 7.21875 0 L 0 0 C -0.34375 0 -0.632812 -0.0976562 -0.875 -0.296875 C -1.113281 -0.492188 -1.234375 -0.753906 -1.234375 -1.078125 Z M -1.234375 -1.078125 "/></g></g></g><g fill="#ffffff" fill-opacity="1"><g transform="translate(282.825779, 202.586907)"><g><path d="M -1.234375 -1.078125 C -1.234375 -1.390625 -1.113281 -1.664062 -0.875 -1.90625 C -0.632812 -2.144531 -0.34375 -2.265625 0 -2.265625 L 7.21875 -2.265625 L 7.21875 0 L 0 0 C -0.34375 0 -0.632812 -0.0976562 -0.875 -0.296875 C -1.113281 -0.492188 -1.234375 -0.753906 -1.234375 -1.078125 Z M -1.234375 -1.078125 "/></g></g></g><g fill="#ffffff" fill-opacity="1"><g transform="translate(290.050997, 202.586907)"><g><path d="M -1.234375 -1.078125 C -1.234375 -1.390625 -1.113281 -1.664062 -0.875 -1.90625 C -0.632812 -2.144531 -0.34375 -2.265625 0 -2.265625 L 7.21875 -2.265625 L 7.21875 0 L 0 0 C -0.34375 0 -0.632812 -0.0976562 -0.875 -0.296875 C -1.113281 -0.492188 -1.234375 -0.753906 -1.234375 -1.078125 Z M -1.234375 -1.078125 "/></g></g></g><g fill="#ffffff" fill-opacity="1"><g transform="translate(297.276214, 202.586907)"><g><path d="M 0 0 C -0.34375 0 -0.632812 -0.0976562 -0.875 -0.296875 C -1.113281 -0.492188 -1.234375 -0.753906 -1.234375 -1.078125 C -1.234375 -1.390625 -1.113281 -1.664062 -0.875 -1.90625 C -0.632812 -2.144531 -0.34375 -2.265625 0 -2.265625 L 3.84375 -2.265625 L 3.84375 -13.296875 C 3.84375 -14.429688 3.421875 -15.160156 2.578125 -15.484375 L 2.578125 -16.28125 L 7.5 -16.28125 C 9.882812 -16.28125 11.078125 -15.085938 11.078125 -12.703125 L 11.078125 0 Z M 0.6875 -20.171875 C 0.6875 -20.703125 0.972656 -21.171875 1.546875 -21.578125 C 2.128906 -21.992188 2.804688 -22.203125 3.578125 -22.203125 C 4.265625 -22.203125 4.878906 -21.992188 5.421875 -21.578125 C 5.960938 -21.171875 6.234375 -20.703125 6.234375 -20.171875 C 6.234375 -19.640625 5.960938 -19.1875 5.421875 -18.8125 C 4.878906 -18.445312 4.265625 -18.265625 3.578125 -18.265625 C 2.804688 -18.265625 2.128906 -18.445312 1.546875 -18.8125 C 0.972656 -19.1875 0.6875 -19.640625 0.6875 -20.171875 Z M 6.640625 -20.171875 C 6.640625 -20.703125 6.914062 -21.171875 7.46875 -21.578125 C 8.019531 -21.992188 8.640625 -22.203125 9.328125 -22.203125 C 10.097656 -22.203125 10.765625 -21.992188 11.328125 -21.578125 C 11.898438 -21.171875 12.1875 -20.703125 12.1875 -20.171875 C 12.1875 -19.640625 11.898438 -19.1875 11.328125 -18.8125 C 10.765625 -18.445312 10.097656 -18.265625 9.328125 -18.265625 C 8.640625 -18.265625 8.019531 -18.445312 7.46875 -18.8125 C 6.914062 -19.1875 6.640625 -19.640625 6.640625 -20.171875 Z M 6.640625 -20.171875 "/></g></g></g><g fill="#fdcf43" fill-opacity="1"><g transform="translate(210.104878, 203.113247)"><g><path d="M -1.28125 -1.109375 C -1.28125 -1.441406 -1.15625 -1.726562 -0.90625 -1.96875 C -0.65625 -2.21875 -0.351562 -2.34375 0 -2.34375 L 7.5 -2.34375 L 7.5 0 L 0 0 C -0.351562 0 -0.65625 -0.101562 -0.90625 -0.3125 C -1.15625 -0.519531 -1.28125 -0.785156 -1.28125 -1.109375 Z M -1.28125 -1.109375 "/></g></g></g><g fill="#fdcf43" fill-opacity="1"><g transform="translate(217.597802, 203.113247)"><g><path d="M -1.28125 -1.109375 C -1.28125 -1.441406 -1.15625 -1.726562 -0.90625 -1.96875 C -0.65625 -2.21875 -0.351562 -2.34375 0 -2.34375 L 3.171875 -2.34375 L 3.171875 -13.796875 C 3.171875 -14.972656 2.734375 -15.726562 1.859375 -16.0625 L 1.859375 -16.875 L 6.953125 -16.875 C 9.421875 -16.875 10.65625 -15.640625 10.65625 -13.171875 L 10.65625 -2.34375 L 13.828125 -2.34375 L 13.828125 -13.796875 C 13.828125 -14.972656 13.390625 -15.726562 12.515625 -16.0625 L 12.515625 -16.875 L 17.625 -16.875 C 20.09375 -16.875 21.328125 -15.640625 21.328125 -13.171875 L 21.328125 -2.34375 L 24.5 -2.34375 L 24.5 -13.796875 C 24.5 -14.972656 24.0625 -15.726562 23.1875 -16.0625 L 23.1875 -16.875 L 28.28125 -16.875 C 30.75 -16.875 31.984375 -15.640625 31.984375 -13.171875 L 31.984375 -2.34375 L 33.84375 -2.34375 L 33.84375 0 L 0 0 C -0.351562 0 -0.65625 -0.101562 -0.90625 -0.3125 C -1.15625 -0.519531 -1.28125 -0.785156 -1.28125 -1.109375 Z M 10.953125 -20.90625 C 10.953125 -21.457031 11.253906 -21.945312 11.859375 -22.375 C 12.460938 -22.800781 13.160156 -23.015625 13.953125 -23.015625 C 14.671875 -23.015625 15.3125 -22.800781 15.875 -22.375 C 16.4375 -21.945312 16.71875 -21.457031 16.71875 -20.90625 C 16.71875 -20.363281 16.4375 -19.898438 15.875 -19.515625 C 15.3125 -19.128906 14.671875 -18.9375 13.953125 -18.9375 C 13.160156 -18.9375 12.460938 -19.128906 11.859375 -19.515625 C 11.253906 -19.898438 10.953125 -20.363281 10.953125 -20.90625 Z M 17.125 -20.90625 C 17.125 -21.457031 17.410156 -21.945312 17.984375 -22.375 C 18.566406 -22.800781 19.210938 -23.015625 19.921875 -23.015625 C 20.722656 -23.015625 21.414062 -22.800781 22 -22.375 C 22.59375 -21.945312 22.890625 -21.457031 22.890625 -20.90625 C 22.890625 -20.363281 22.59375 -19.898438 22 -19.515625 C 21.414062 -19.128906 20.722656 -18.9375 19.921875 -18.9375 C 19.210938 -18.9375 18.566406 -19.128906 17.984375 -19.515625 C 17.410156 -19.898438 17.125 -20.363281 17.125 -20.90625 Z M 14.125 -24.828125 C 14.125 -25.378906 14.390625 -25.84375 14.921875 -26.21875 C 15.460938 -26.601562 16.128906 -26.796875 16.921875 -26.796875 C 17.710938 -26.796875 18.375 -26.601562 18.90625 -26.21875 C 19.445312 -25.84375 19.71875 -25.378906 19.71875 -24.828125 C 19.71875 -24.242188 19.445312 -23.757812 18.90625 -23.375 C 18.375 -23 17.710938 -22.8125 16.921875 -22.8125 C 16.128906 -22.8125 15.460938 -23 14.921875 -23.375 C 14.390625 -23.757812 14.125 -24.242188 14.125 -24.828125 Z M 14.125 -24.828125 "/></g></g></g><g fill="#fdcf43" fill-opacity="1"><g transform="translate(251.439473, 203.113247)"><g><path d="M -1.28125 -1.109375 C -1.28125 -1.441406 -1.15625 -1.726562 -0.90625 -1.96875 C -0.65625 -2.21875 -0.351562 -2.34375 0 -2.34375 L 7.5 -2.34375 L 7.5 0 L 0 0 C -0.351562 0 -0.65625 -0.101562 -0.90625 -0.3125 C -1.15625 -0.519531 -1.28125 -0.785156 -1.28125 -1.109375 Z M -1.28125 -1.109375 "/></g></g></g></svg>